<svg xmlns="http://www.w3.org/2000/svg" width="24" height="24" viewBox="0 0 24 24" fill="none" aria-hidden="true">
  <path fill="#e9edf8" d="M17.88 2.1a1.25 1.25 0 0 1 1.77 1.77l-1.29 1.3.72.72a.75.75 0 0 1-1.06 1.06l-.72-.72-1.06 1.06-.95-.96 1.05-1.05-.73-.73a.75.75 0 1 1 1.06-1.06l.73.73 1.28-1.3Zm-6.77 5.03 2.86-2.86 1.76 1.75-2.86 2.87a6.15 6.15 0 0 1-.9 7.53l-.32.3a6.16 6.16 0 0 1-7.86.64 2.5 2.5 0 0 1-.23-3.8l1.28-1.27a2.48 2.48 0 0 1 3.79.22 6.17 6.17 0 0 1 2.46-5.38Zm-5.2 6.2-.96.96a1 1 0 0 0 .09 1.52 4.66 4.66 0 0 0 5.58-.48l.31-.3a4.65 4.65 0 0 0 .44-6.11l-.38-.42a4.66 4.66 0 0 0-6.58-.3l-.96.96.76.76.96-.96a2.16 2.16 0 0 1 3.04.15l.13.14a2.16 2.16 0 0 1-.15 3.05l-.96.95-.76-.76.95-.96a.66.66 0 0 0 .05-.93l-.13-.14a.66.66 0 0 0-.93-.04l-.96.95.45.46Z"/>
</svg>
